<?xml version="1.0" encoding="UTF-8"?>
<svg id="Layer_1" data-name="Layer 1" xmlns="http://www.w3.org/2000/svg" viewBox="0 0 31.96 12">
  <path d="m3.05,8.73h-.44c-.62,0-1.08-.09-1.39-.27-.31-.18-.46-.46-.46-.82v-2.95l-.76-.48v-.28l1.02-1.3.61.38c.18.11.33.17.45.17h.22c-.24.44-.44.65-.58.65s-.29-.05-.45-.15l-.34-.21-.42.54,1.03.65v2.98c0,.22.09.38.27.49.18.11.46.17.82.17h.44c.36,0,.64-.06.82-.17.18-.11.27-.27.27-.49v-2.95l-.76-.48v-.28l1.02-1.3.61.38c.18.11.33.17.45.17h.22c-.24.44-.44.65-.58.65s-.29-.05-.45-.15l-.34-.21-.42.54,1.03.65v2.98c0,.36-.15.64-.46.82-.31.18-.78.27-1.39.27Z"/>
  <path d="m2.75,2.19h-.15l-.79-.72-.66.37.41.36h-.69l-.32-.27v-.25l1.37-.79h.23l.69.62.68-.62h.23l.79.54c.13.08.24.12.36.12h.23c-.15.44-.29.65-.42.65s-.28-.06-.45-.17l-.75-.51-.75.68Z"/>
  <path d="m4.15,12v-1.96c0-.07-.02-.13-.06-.17-.03-.03-.09-.05-.16-.05,0-.15.04-.25.12-.33.08-.07.21-.11.37-.11s.29.04.37.11c.08.07.12.18.12.33v2.18h-.76Z"/>
  <path d="m7.53,3.63c0-.34.17-.59.52-.76.35-.17.86-.25,1.55-.25s1.21.08,1.55.25c.35.17.52.43.52.76v1.06c0,.15-.06.25-.19.32-.13.07-.32.11-.57.11s-.44-.06-.57-.19c-.13-.13-.19-.32-.19-.57,0-.18.06-.32.19-.41.13-.09.32-.14.57-.14v-.18c0-.19-.11-.34-.33-.44-.22-.1-.55-.14-.98-.14s-.76.05-.98.14c-.22.1-.33.24-.33.44v1.02c0,.29.11.47.33.55l3.05,1.05v1.46c0,.34-.11.59-.32.76-.22.17-.54.25-.97.25-.26,0-.49-.06-.7-.17-.21-.11-.4-.28-.56-.51-.1-.14-.22-.24-.35-.31-.14-.07-.29-.1-.47-.1v1.09h-.76v-2.54h.76v1.02c.26,0,.49.05.69.14.2.09.36.23.49.41.13.18.27.32.42.41.15.09.31.14.48.14s.31-.05.4-.14c.09-.1.14-.24.14-.43v-1.27l-2.41-.82c-.33-.11-.57-.25-.73-.41-.16-.16-.24-.34-.24-.55v-1.02Zm3.38.62c-.11,0-.19,0-.24.03-.06.02-.08.05-.08.08,0,.11.03.19.08.24.06.06.14.08.24.08v-.44Z"/>
  <path d="m18.44,7.64c0,.36-.14.64-.41.82-.27.18-.68.27-1.23.27h-.87c-.54,0-.95-.09-1.23-.27-.27-.18-.41-.46-.41-.82v-3.44l-.44-.34v-.33l1.44-.91h.24l1.17.98h.2c.25,0,.45-.05.58-.15.13-.1.19-.23.19-.39,0-.22-.05-.38-.14-.49-.09-.11-.23-.17-.41-.17,0-.15.04-.26.13-.33.09-.07.22-.1.4-.1.26,0,.45.09.58.27.13.18.2.45.2.82,0,.32-.13.56-.4.73-.27.17-.64.25-1.13.25h-.87l-.93-.79-.73.46.68.53v3.39c0,.22.07.38.22.49.15.11.36.17.65.17h.87c.29,0,.51-.06.65-.17.15-.11.22-.27.22-.49v-1.2c-.25,0-.44-.05-.57-.14s-.19-.23-.19-.41c0-.12.04-.25.1-.39.07-.14.18-.29.32-.44l.34-.38h.76v2.95Zm-.76-2.3c-.11.12-.19.23-.24.32s-.08.17-.08.23c0,.03.03.06.08.08.06.02.14.03.24.03v-.66Z"/>
  <path d="m21.05,8.73v-4.68l-1.7-.77-.92.41-.43-.28,1.74-.79,2.07.94v5.17h-.76Z"/>
  <path d="m25.2,8.73h-.76l-.38-.55c-.13-.18-.22-.35-.28-.49-.06-.14-.1-.27-.1-.38,0-.22.06-.38.17-.49.11-.11.27-.16.49-.16h.11v-1.97l-.76-.48v-.29l.67-1.3.38.21c.26.15.44.22.54.22.05,0,.09-.03.12-.08.03-.06.04-.14.04-.24,0-.18-.06-.32-.17-.41-.11-.09-.27-.14-.49-.14,0-.15.04-.25.11-.33s.18-.11.33-.11c.22,0,.38.08.49.24.11.16.17.41.17.74,0,.36-.05.64-.16.82-.11.18-.27.27-.48.27-.1,0-.22-.03-.36-.08-.14-.05-.3-.13-.48-.23l-.24.47,1.07.68v4.08Zm-.76-1.64h-.11c-.07,0-.13.02-.17.06-.03.03-.05.09-.05.16,0,.06.03.15.08.26.05.11.13.24.24.4v-.88Z"/>
  <path d="m21.71,1.25c0-.42.1-.73.31-.94.21-.21.52-.31.94-.31.24,0,.52.07.82.21.29.14.61.36.96.65l.47.39v.5h-2.74c-.25,0-.43-.04-.56-.13-.13-.08-.19-.21-.19-.37Zm1.25-.5c-.17,0-.29.04-.38.13s-.13.21-.13.38h1.95c-.2-.17-.42-.29-.66-.38-.24-.08-.5-.13-.79-.13Z"/>
  <path d="m27.82,3.63c0-.34.17-.59.52-.76.35-.17.86-.25,1.55-.25s1.21.08,1.55.25c.35.17.52.43.52.76v1.06c0,.15-.06.25-.19.32-.13.07-.32.11-.57.11s-.44-.06-.57-.19c-.13-.13-.19-.32-.19-.57,0-.18.06-.32.19-.41.13-.09.32-.14.57-.14v-.18c0-.19-.11-.34-.33-.44-.22-.1-.55-.14-.98-.14s-.76.05-.98.14c-.22.1-.33.24-.33.44v1.02c0,.29.11.47.33.55l3.05,1.05v1.46c0,.34-.11.59-.32.76-.22.17-.54.25-.97.25-.26,0-.49-.06-.7-.17-.21-.11-.4-.28-.56-.51-.1-.14-.22-.24-.35-.31-.14-.07-.29-.1-.47-.1v1.09h-.76v-2.54h.76v1.02c.26,0,.49.05.69.14.2.09.36.23.49.41.13.18.27.32.42.41.15.09.31.14.48.14s.31-.05.4-.14c.09-.1.14-.24.14-.43v-1.27l-2.41-.82c-.33-.11-.57-.25-.73-.41-.16-.16-.24-.34-.24-.55v-1.02Zm3.38.62c-.11,0-.19,0-.24.03-.06.02-.08.05-.08.08,0,.11.03.19.08.24.06.06.14.08.24.08v-.44Z"/>
</svg>