<?xml version="1.0" encoding="UTF-8"?>
<svg id="Layer_1" data-name="Layer 1" xmlns="http://www.w3.org/2000/svg" viewBox="0 0 120.3 45.16">
  <path d="m11.5,32.85h-1.64c-2.33,0-4.08-.34-5.24-1.02-1.16-.69-1.74-1.72-1.74-3.09v-11.1l-2.87-1.82v-1.05l3.83-4.91,2.28,1.41c.67.43,1.23.64,1.69.64h.82c-.91,1.64-1.64,2.46-2.18,2.46s-1.1-.19-1.69-.56l-1.3-.8-1.59,2.04,3.89,2.46v11.23c0,.82.34,1.43,1.02,1.84.69.42,1.72.62,3.09.62h1.64c1.37,0,2.4-.21,3.09-.62.68-.4,1.02-1.02,1.02-1.84v-11.1l-2.87-1.82v-1.05l3.83-4.91,2.28,1.41c.67.43,1.23.64,1.69.64h.82c-.91,1.64-1.64,2.46-2.18,2.46s-1.1-.19-1.69-.56l-1.3-.8-1.59,2.04,3.89,2.46v11.23c0,1.37-.58,2.4-1.74,3.09-1.17.68-2.92,1.02-5.24,1.02Z"/>
  <path d="m10.35,8.24h-.57l-2.96-2.73-2.5,1.38,1.54,1.35h-2.61l-1.2-1.03v-.94l5.17-2.96h.85l2.61,2.33,2.56-2.33h.85l2.97,2.02c.47.3.92.44,1.35.44h.85c-.57,1.64-1.1,2.46-1.59,2.46s-1.05-.22-1.71-.66l-2.82-1.9-2.81,2.56Z"/>
  <path d="m15.6,45.16v-7.39c0-.27-.07-.48-.21-.62-.13-.13-.33-.2-.61-.2,0-.55.15-.96.46-1.23.31-.27.77-.41,1.4-.41s1.07.14,1.38.41c.31.27.46.68.46,1.23v8.21h-2.87Z"/>
  <path d="m28.33,13.68c0-1.27.65-2.23,1.95-2.87,1.3-.63,3.25-.95,5.85-.95s4.54.32,5.85.95c1.3.65,1.95,1.6,1.95,2.87v3.99c0,.55-.24.95-.72,1.22-.48.27-1.2.41-2.15.41s-1.67-.24-2.15-.72c-.48-.47-.72-1.19-.72-2.15,0-.68.24-1.19.72-1.54.48-.34,1.2-.51,2.15-.51v-.69c0-.73-.41-1.28-1.23-1.64-.83-.36-2.06-.54-3.7-.54s-2.87.18-3.7.54c-.82.36-1.23.91-1.23,1.64v3.84c0,1.08.41,1.77,1.23,2.05l11.5,3.94v5.5c0,1.27-.41,2.23-1.22,2.87-.81.64-2.03.95-3.66.95-.97,0-1.86-.21-2.64-.64-.8-.43-1.5-1.07-2.1-1.92-.37-.51-.82-.9-1.33-1.17-.51-.25-1.11-.38-1.77-.38v4.11h-2.87v-9.57h2.87v3.83c.99,0,1.84.17,2.58.51.74.34,1.36.85,1.86,1.54.49.68,1.02,1.19,1.59,1.53.57.34,1.18.51,1.82.51s1.17-.18,1.51-.54c.34-.36.51-.9.51-1.63v-4.76l-9.08-3.1c-1.23-.42-2.14-.93-2.74-1.54-.61-.6-.92-1.3-.92-2.09v-3.84Zm12.73,2.33c-.41,0-.71.03-.92.1-.21.08-.31.18-.31.31,0,.42.1.72.31.92.21.21.51.31.92.31v-1.64Z"/>
  <path d="m69.39,28.74c0,1.37-.52,2.4-1.54,3.09-1.03.68-2.57,1.02-4.61,1.02h-3.28c-2.05,0-3.59-.34-4.62-1.02-1.03-.69-1.54-1.72-1.54-3.09v-12.94l-1.64-1.28v-1.25l5.42-3.42h.92l4.4,3.7h.76c.95,0,1.68-.19,2.17-.57.48-.37.72-.86.72-1.48,0-.82-.18-1.43-.53-1.84-.34-.42-.85-.62-1.54-.62,0-.56.16-.97.49-1.25.34-.26.84-.39,1.49-.39.97,0,1.71.34,2.2,1.02.49.68.74,1.71.74,3.09,0,1.2-.5,2.12-1.51,2.76-1.01.62-2.42.94-4.24.94h-3.27l-3.51-2.96-2.74,1.74,2.55,2v12.76c0,.82.27,1.43.82,1.84.55.42,1.37.62,2.46.62h3.28c1.09,0,1.92-.21,2.46-.62.55-.4.82-1.02.82-1.84v-4.52c-.95,0-1.67-.17-2.15-.51s-.72-.85-.72-1.53c0-.45.13-.94.39-1.46.26-.53.66-1.08,1.2-1.66l1.28-1.41h2.87v11.09Zm-2.87-8.64c-.41.46-.71.86-.92,1.2s-.31.63-.31.87c0,.13.1.24.31.31.21.07.51.1.92.1v-2.48Z"/>
  <path d="m79.24,32.85V15.24l-6.4-2.91-3.45,1.54-1.61-1.07,6.54-2.96,7.8,3.53v19.46h-2.87Z"/>
  <path d="m94.85,32.85h-2.87l-1.44-2.07c-.47-.69-.83-1.31-1.07-1.86-.24-.54-.36-1.01-.36-1.41,0-.82.21-1.44.62-1.86.4-.4,1.02-.61,1.84-.61h.41v-7.41l-2.87-1.82v-1.08l2.53-4.88,1.41.8c.96.56,1.64.84,2.04.84.2,0,.34-.1.44-.31.1-.21.15-.51.15-.92,0-.69-.21-1.2-.62-1.54-.41-.34-1.02-.51-1.84-.51,0-.55.14-.96.41-1.23s.68-.41,1.23-.41c.82,0,1.43.31,1.84.92.42.61.62,1.54.62,2.78,0,1.37-.2,2.39-.61,3.07-.4.69-1.01,1.03-1.82,1.03-.37,0-.82-.1-1.35-.3-.53-.19-1.13-.48-1.82-.87l-.9,1.76,4.04,2.55v15.34Zm-2.87-6.16h-.41c-.27,0-.48.07-.62.21-.13.13-.2.33-.2.61,0,.23.1.55.31.97.2.42.5.92.92,1.51v-3.3Z"/>
  <path d="m81.71,4.7c0-1.57.39-2.74,1.17-3.53.79-.78,1.97-1.17,3.53-1.17.92,0,1.94.27,3.07.8,1.11.54,2.31,1.35,3.61,2.43l1.76,1.46v1.87h-10.33c-.93,0-1.63-.16-2.1-.48-.47-.31-.71-.77-.71-1.4Zm4.7-1.89c-.62,0-1.09.16-1.41.48s-.48.79-.48,1.41h7.32c-.74-.62-1.57-1.09-2.48-1.41-.9-.32-1.88-.48-2.96-.48Z"/>
  <path d="m104.7,13.68c0-1.27.65-2.23,1.95-2.87,1.3-.63,3.25-.95,5.85-.95s4.54.32,5.85.95c1.3.65,1.95,1.6,1.95,2.87v3.99c0,.55-.24.95-.72,1.22-.48.27-1.2.41-2.15.41s-1.67-.24-2.15-.72c-.48-.47-.72-1.19-.72-2.15,0-.68.24-1.19.72-1.54.48-.34,1.2-.51,2.15-.51v-.69c0-.73-.41-1.28-1.23-1.64-.83-.36-2.06-.54-3.7-.54s-2.87.18-3.7.54c-.82.36-1.23.91-1.23,1.64v3.84c0,1.08.41,1.77,1.23,2.05l11.5,3.94v5.5c0,1.27-.41,2.23-1.22,2.87-.81.64-2.03.95-3.66.95-.97,0-1.86-.21-2.64-.64-.8-.43-1.5-1.07-2.1-1.92-.37-.51-.82-.9-1.33-1.17-.51-.25-1.11-.38-1.77-.38v4.11h-2.87v-9.57h2.87v3.83c.99,0,1.84.17,2.58.51.74.34,1.36.85,1.86,1.54.49.68,1.02,1.19,1.59,1.53.57.34,1.18.51,1.82.51s1.17-.18,1.51-.54c.34-.36.51-.9.51-1.63v-4.76l-9.08-3.1c-1.23-.42-2.14-.93-2.74-1.54-.61-.6-.92-1.3-.92-2.09v-3.84Zm12.73,2.33c-.41,0-.71.03-.92.1-.21.08-.31.18-.31.31,0,.42.1.72.31.92.21.21.51.31.92.31v-1.64Z"/>
</svg>